<?xml version="1.0" encoding="utf-8"?>
<!-- Generator: Adobe Illustrator 23.0.2, SVG Export Plug-In . SVG Version: 6.00 Build 0)  -->
<svg version="1.1" id="Слой_3" xmlns="http://www.w3.org/2000/svg" xmlns:xlink="http://www.w3.org/1999/xlink" x="0px" y="0px"
	 viewBox="0 0 16.7 16.4" style="enable-background:new 0 0 16.7 16.4;" xml:space="preserve">
<style type="text/css">
	.st0{fill:#FFFFFF;}
</style>
<path class="st0" d="M15.3,4.9c-0.6,0-1.2,0.4-1.3,1L9.2,7.6L10.8,4c0.2-0.4,0-0.8-0.4-1c-0.4-0.2-0.8,0-1,0.4L7.9,6.8L5.9,2.1
	C6,1.9,6.1,1.6,6.1,1.4C6.1,0.6,5.5,0,4.7,0S3.3,0.6,3.3,1.4c0,0.7,0.5,1.3,1.2,1.4L6.3,7L3.1,5.6c-0.4-0.2-0.8,0-1,0.4
	c-0.2,0.4,0,0.8,0.4,1l3.7,1.6L1.9,9.9C1.8,9.9,1.6,9.8,1.4,9.8C0.6,9.8,0,10.4,0,11.2c0,0.8,0.6,1.4,1.4,1.4c0.8,0,1.4-0.6,1.4-1.4
	l3.6-1.2L5,12.9c-0.2,0.4,0,0.8,0.4,1C5.5,14,5.6,14,5.7,14c0.3,0,0.5-0.2,0.7-0.4l1.4-3l1.6,3.9c-0.1,0.2-0.2,0.4-0.2,0.7
	c0,0.8,0.6,1.4,1.4,1.4s1.4-0.6,1.4-1.4c0-0.7-0.6-1.3-1.3-1.4L9,9.7l3.4,1.4c0.1,0,0.2,0.1,0.3,0.1c0.3,0,0.6-0.2,0.7-0.5
	c0.2-0.4,0-0.8-0.4-1l-2.5-1l4-1.3c0.2,0.2,0.5,0.3,0.9,0.3c0.8,0,1.4-0.6,1.4-1.4S16.1,4.9,15.3,4.9z"/>
</svg>
