<?xml version="1.0" encoding="utf-8"?>
<!-- Generator: Adobe Illustrator 23.0.2, SVG Export Plug-In . SVG Version: 6.00 Build 0)  -->
<svg version="1.1" id="Слой_3" xmlns="http://www.w3.org/2000/svg" xmlns:xlink="http://www.w3.org/1999/xlink" x="0px" y="0px"
	 viewBox="0 0 13.1 12.4" style="enable-background:new 0 0 13.1 12.4;" xml:space="preserve">
<style type="text/css">
	.st0{fill:#FFFFFF;}
</style>
<path class="st0" d="M13.1,3.4c-0.2-0.4-0.6-0.6-1-0.4L8.2,4.6l1-2.9c0.1-0.4-0.1-0.8-0.5-0.9C8.4,0.7,8,0.9,7.9,1.2L6.7,4.4l-2-4
	C4.6,0,4.1-0.1,3.8,0.1c-0.4,0.2-0.5,0.6-0.3,1l2,4.1L2.1,3.9c-0.4-0.2-0.8,0-1,0.4c-0.2,0.4,0,0.8,0.4,1l2.6,1L0.5,7.9
	C0.1,8-0.1,8.5,0.1,8.8c0.1,0.3,0.4,0.5,0.7,0.5c0.1,0,0.2,0,0.3-0.1l4.7-1.9l-1.5,4.1c-0.1,0.4,0.1,0.8,0.5,0.9c0.1,0,0.2,0,0.2,0
	c0.3,0,0.6-0.2,0.7-0.5l1.3-3.6L8.8,12c0.1,0.3,0.4,0.4,0.7,0.4c0.1,0,0.2,0,0.3-0.1c0.4-0.2,0.5-0.6,0.3-1L8.5,8l3.2,1.3
	c0.1,0,0.2,0.1,0.3,0.1c0.3,0,0.6-0.2,0.7-0.5c0.2-0.4,0-0.8-0.4-1l-4-1.6l4.5-1.9C13.1,4.3,13.2,3.8,13.1,3.4z"/>
</svg>
